<svg width="112" height="40" viewBox="0 0 112 40" fill="none" xmlns="http://www.w3.org/2000/svg">
<path d="M101.963 28.323C99.7205 30.2576 96.8429 31.2945 93.883 31.2345C89.0195 31.2345 85.5797 28.6542 84.5101 23.7092H111.205C111.274 22.7079 111.351 21.7065 111.351 20.8439C111.305 9.96022 105.426 0.000878029 92.6286 0.000878029C88.8444 -0.0360316 85.1402 1.09154 82.0172 3.23102C78.8943 5.3705 76.5033 8.4186 75.1679 11.9629C74.3907 4.51455 69.7581 0.000878029 62.2706 0.000878029C56.7607 0.000878029 53.5364 2.93553 51.0354 6.16288V0.717211L40.1619 7.05637V12.6253C37.2608 5.20777 29.9579 0.000878029 20.8235 0.000878029C8.87271 0.000878029 0 8.9589 0 19.9889V20.1352C0 31.1652 8.80345 39.9692 20.685 39.9692C29.9194 39.9692 37.2531 34.6622 40.1619 27.1984V39.1142H51.0354V17.7166C51.0354 12.556 53.6826 9.9063 57.8304 9.9063C61.9781 9.9063 64.4176 12.5329 64.4176 17.7166V39.1142H75.2988V28.5002C78.2999 35.5634 85.1796 40 93.706 40C100.524 40 105.618 37.3734 109.189 33.0677M30.7813 20.1275C30.7813 25.7889 27.0568 30.5875 20.8312 30.5875C14.8212 30.5875 10.7427 25.6425 10.7427 19.9889V19.8425C10.7427 14.1812 14.4672 9.38253 20.6927 9.38253C26.6951 9.38253 30.7813 14.3275 30.7813 19.9889V20.1275ZM84.3331 16.9079C85.1949 11.9629 88.1269 8.74322 92.6363 8.74322C97.1458 8.74322 100.078 12.0399 100.724 16.9079H84.3331Z" fill="white"/>
<path d="M18.8068 16.3065L23.6267 19.9007C23.6748 19.9352 23.7145 19.9831 23.7419 20.04C23.7694 20.0969 23.7838 20.1609 23.7838 20.2259C23.7838 20.291 23.7694 20.3549 23.7419 20.4118C23.7145 20.4687 23.6748 20.5167 23.6267 20.5512L18.9231 23.695C18.8752 23.7414 18.8166 23.771 18.7544 23.7803C18.6923 23.7895 18.6291 23.7781 18.5724 23.7474C18.5157 23.7166 18.4679 23.6678 18.4347 23.6068C18.4015 23.5458 18.3843 23.4751 18.3851 23.4032V16.565C18.3725 16.5041 18.3778 16.4401 18.4002 16.3829C18.4226 16.3258 18.4609 16.2788 18.5091 16.2493C18.5572 16.2198 18.6126 16.2094 18.6664 16.2197C18.7203 16.2301 18.7697 16.2606 18.8068 16.3065Z" fill="#AF96FF"/>
</svg>
